<?xml version="1.0" ?><!DOCTYPE svg  PUBLIC '-//W3C//DTD SVG 1.1//EN'  'http://www.w3.org/Graphics/SVG/1.1/DTD/svg11.dtd'><svg enable-background="new 0 0 512 512" id="Layer_1" version="1.1" viewBox="0 0 512 512" xml:space="preserve" xmlns="http://www.w3.org/2000/svg" xmlns:xlink="http://www.w3.org/1999/xlink"><g id="Layer_1_1_"><circle cx="256" cy="256" fill="#3B5999" r="238.2"/></g><g id="Layer_2"><g><path d="M280.6,330.9c0,24.1-0.1,48.1,0.1,72.2    c0,2.6-0.6,3.3-3.3,3.3c-20.5-0.1-41-0.1-61.5,0c-2.8,0-3.5-0.8-3.5-3.5c0.1-47.8,0.1-95.7,0.1-143.5c0-2.6-0.5-3.6-3.3-3.5    c-9.1,0.2-18.1,0-27.2,0.1c-2.1,0-2.7-0.6-2.7-2.7c0.1-15.1,0.1-30.3,0-45.4c0-2.3,0.8-2.8,2.9-2.7c9.1,0.1,18.1-0.1,27.2,0.1    c2.6,0.1,3.1-0.8,3.1-3.2c-0.1-13.3-0.1-26.7,0-40c0.1-11.5,2.4-22.4,9.3-32.1c7.2-10.3,17.3-16.5,29-20.2c8.8-2.8,17.8-4,27-4.1    c17.3-0.2,34.6-0.1,51.9-0.2c2.4,0,3,0.8,3,3.1c-0.1,15.5-0.1,31,0,46.6c0,2.6-0.8,3.1-3.2,3.1c-10.9-0.1-21.9-0.1-32.8-0.1    c-9.6,0-15.9,6.3-15.9,15.8c0,9.4,0.1,18.9-0.1,28.4c0,2.3,0.7,2.9,2.9,2.9c15.3-0.1,30.6,0,46-0.1c2.3,0,3.2,0.5,2.9,3    c-1.7,15.5-3.1,31-5.9,46.4c-0.4,1.9-1.6,1.4-2.6,1.4c-9.1,0-18.1,0-27.2,0c-4.4,0-8.8,0.1-13.1-0.1c-2.4-0.1-3.2,0.6-3.1,3.1    C280.6,282.9,280.6,306.9,280.6,330.9z" fill="none" stroke="#FAFAFA" stroke-miterlimit="10" stroke-width="10"/></g></g></svg>