<?xml version="1.0" ?><!DOCTYPE svg  PUBLIC '-//W3C//DTD SVG 1.1//EN'  'http://www.w3.org/Graphics/SVG/1.1/DTD/svg11.dtd'><svg height="2048px" style="shape-rendering:geometricPrecision; text-rendering:geometricPrecision; image-rendering:optimizeQuality; fill-rule:evenodd; clip-rule:evenodd" viewBox="0 0 2048 2048" width="2048px" xml:space="preserve" xmlns="http://www.w3.org/2000/svg" xmlns:xlink="http://www.w3.org/1999/xlink"><defs><style type="text/css">
   <![CDATA[
    .fil1 {fill:none}
    .fil0 {fill:#424242;fill-rule:nonzero}
   ]]>
  </style></defs><g id="Layer_x0020_1"><path class="fil0" d="M680.532 762.667l180.266 0 0 -229.334c0,-0.700394 0.0448819,-1.39016 0.132284,-2.06693 3.71457,-70.48 17.9599,-134.177 50.7945,-180.936 34.0571,-48.502 87.0095,-78.3319 167.06,-78.3319l288.683 0c8.83583,0 16.0004,7.16457 16.0004,16.0004l0 231.157c0,8.83583 -7.16457,16.0004 -16.0004,16.0004l-113.958 0c-29.3941,0 -51.4489,4.50237 -65.7556,16.3169l-10.187 -12.3118 10.187 12.3378c-0.309449,0.255118 -0.625985,0.494882 -0.947245,0.724016 -13.2614,11.5039 -20.7366,30.8386 -22.3618,60.7382l0.022441 0 0 149.705 203 0c8.83583,0 16.0004,7.16457 16.0004,16.0004l0 245.333c0,8.83583 -7.16457,16.0004 -16.0004,16.0004l-203 0 0 720.001c0,8.83583 -7.16457,16.0004 -16.0004,16.0004l-271.669 0c-8.83583,0 -16.0004,-7.16457 -16.0004,-16.0004l0 -720.001 -180.266 0c-8.83583,0 -16.0004,-7.16457 -16.0004,-16.0004l0 -245.333c0,-8.83583 7.16457,-16.0004 16.0004,-16.0004z"/></g><rect class="fil1" height="2048" width="2048"/></svg>