<?xml version="1.0" ?><!DOCTYPE svg  PUBLIC '-//W3C//DTD SVG 1.1//EN'  'http://www.w3.org/Graphics/SVG/1.1/DTD/svg11.dtd'><svg enable-background="new 0 0 512 512" id="Layer_1" version="1.1" viewBox="0 0 512 512" xml:space="preserve" xmlns="http://www.w3.org/2000/svg" xmlns:xlink="http://www.w3.org/1999/xlink"><g id="Layer_1_1_"><circle cx="256" cy="256" fill="#DD4B39" r="238.2"/></g><g id="Layer_2_1_"><g><path d="M201.1,377.2c-3.2-1.1-6.5-0.9-9.8-1.5    c-10.5-2-20.4-5.1-29.3-11c-13.5-9-21.2-21.3-20.3-38c0.8-14.1,7-25.9,17-35.7c12.8-12.4,28.3-18.4,46-18.8c0.5,0,1,0,1.6-0.1    c-0.5-1.5-1-3-1.4-4.4c-1.7-5-1.9-10.2-1.1-15.4c0.2-1.4,0-2.1-1.7-2.2c-16.3-1.2-28.7-9-37.6-22.4c-7.7-11.7-10.8-24.7-9.8-38.5    c1-12.8,6-24.2,14.5-33.9c8.4-9.7,18.9-16.3,31.5-19.3c3.8-0.9,7.7-1.3,11.7-1.3c19.7,0,39.3,0,59,0c3.5,0,4.8,0.9,5.9,3.8    c0.9,2.3,0,4.8-2.2,6.8c-4.2,3.6-8.4,7.1-12.5,10.8c-1.8,1.6-3.8,1.2-5.8,1.4c-0.6,0-1.4-0.3-1.7,0.3s0.3,1.2,0.7,1.7    c8.7,14.9,10.7,30.8,6.9,47.4c-2.6,11.6-9.2,20.9-17.8,28.9c-2.9,2.7-6,5.3-7.9,9c-1.8,3.5-1.9,6.8,0.2,10.2    c4.2,6.6,9.9,11.8,15.7,16.9c12.4,10.9,18.9,24.6,19.6,41.1c0.3,7.9,0.2,15.8-2.3,23.4c-4.4,13.4-12.7,23.6-24.6,30.9    c-9.3,5.7-19.5,8.6-30.3,9.5c-0.4,0-1-0.1-1.2,0.5c-0.6,0-1.3,0-1.9,0c-3-0.4-6.1-0.5-9.1,0C202.4,377.2,201.7,377.2,201.1,377.2z     M210.1,354.4c4.9,0,9.8-0.6,14.5-1.7c7-1.7,13.3-4.8,17.7-11c4.7-6.6,5.7-14,5.1-21.9c-0.4-5.9-3.2-10.7-7.4-14.9    c-3.9-3.9-8.3-7.1-12.5-10.7c-1.6-1.4-3.4-2.3-5.5-2.8c-12.9-2.9-24.9-0.7-35.8,6.9c-15.6,11-17.7,31.1-4.7,45    C189.3,351.4,199,354.5,210.1,354.4z M185.7,185.3c-0.1,10.2,2.3,19.8,7.1,28.7c3.5,6.6,8,12.3,14.7,15.9    c5.9,3.2,13.1,2.2,17.8-2.6c4.6-4.7,6.5-10.6,7.5-16.8c1.7-10.3,0.3-20.4-3.3-30.1c-2.9-7.7-7-14.5-13.4-19.8    c-9.6-7.9-20.7-5.6-26.3,5.4C186.6,172.1,185.6,178.6,185.7,185.3z" fill="none" stroke="#FAFAFA" stroke-miterlimit="10" stroke-width="12"/><path d="M203,377.2c3-0.5,6.1-0.4,9.1,0    C209.1,377.2,206,377.2,203,377.2z" fill="none" stroke="#FAFAFA" stroke-miterlimit="10" stroke-width="12"/><path d="M311.4,277.3c0-6.3,0-12.6,0-18.9    c0-1.9-0.6-2.4-2.4-2.4c-10.2,0.1-20.3,0-30.4,0c-4.4,0-6.3-1.8-6.3-6.2c0-3.5-0.1-7,0-10.5c0.1-4.3,2-6,6.2-6.1    c10.2,0,20.3,0,30.4,0c2,0,2.6-0.6,2.5-2.5c-0.1-12.3,0-24.6,0-36.9c0-5.1,1.8-6.9,7-7c1.9,0,3.8,0,5.8,0c4.9,0,6.7,1.9,6.8,6.9    c0,7,0,14,0,21.1c0,5.1,0,10.2,0,15.3c0,3,0,3,3.2,3c9.9,0,19.8,0,29.7,0c4.3,0,6.3,2,6.4,6.2c0,3.5,0,7,0,10.5c0,4-2.1,6-6.1,6    c-10.2,0-20.5,0-30.7,0c-2,0-2.5,0.6-2.5,2.6c0.1,12.2,0,24.5,0,36.7c0,5.4-1.8,7.2-7.1,7.2c-2,0-4,0-6,0c-4.2,0-6.3-2.1-6.3-6.3    C311.4,289.7,311.4,283.5,311.4,277.3z" fill="none" stroke="#FAFAFA" stroke-miterlimit="10" stroke-width="12"/></g></g></svg>