<?xml version="1.0" ?>
<!DOCTYPE svg  PUBLIC '-//W3C//DTD SVG 1.1//EN'  'http://www.w3.org/Graphics/SVG/1.1/DTD/svg11.dtd'><svg height="2048px" style="shape-rendering:geometricPrecision; text-rendering:geometricPrecision; image-rendering:optimizeQuality; fill-rule:evenodd; clip-rule:evenodd" viewBox="0 0 2048 2048" width="2048px" xml:space="preserve" xmlns="http://www.w3.org/2000/svg" xmlns:xlink="http://www.w3.org/1999/xlink"><defs><style type="text/css">
   <![CDATA[
    .fil1 {fill:none}
    .fil0 {fill:#424242;fill-rule:nonzero}
   ]]>
  </style></defs><g id="Layer_x0020_1"><polygon class="fil0" points="1760,1106.91 1642.18,1106.91 1642.18,1224.73 1642.18,1240.73 1626.18,1240.73 1492.36,1240.73 1476.36,1240.73 1476.36,1224.73 1476.36,1106.91 1358.53,1106.91 1342.53,1106.91 1342.53,1090.91 1342.53,957.09 1342.53,941.09 1358.53,941.09 1476.36,941.09 1476.36,823.268 1476.36,807.268 1492.36,807.268 1626.18,807.268 1642.18,807.268 1642.18,823.268 1642.18,941.09 1760,941.09 1776,941.09 1776,957.09 1776,1090.91 1776,1106.91 "/><path class="fil0" d="M756.357 1508.36c-134.883,0 -255.964,-53.6398 -343.342,-141.017 -87.3768,-87.378 -141.017,-208.459 -141.017,-343.342 0,-134.883 53.6398,-255.965 141.018,-343.342 87.3768,-87.378 208.459,-141.018 343.341,-141.018 64.4575,0 124.037,11.7106 177.901,33.4855 55.9678,22.6252 105.571,56.0138 147.892,98.3351l11.5949 11.5961 -11.9079 11.2784 -127.133 120.423 -11.3303 10.7339 -10.9819 -10.9831c-17.7862,-17.7874 -43.6406,-37.591 -78.6674,-51.352 -26.7957,-10.5272 -59.0599,-17.5642 -97.3678,-17.5642 -75.3485,0 -142.879,31.2 -191.731,81.1902 -49.5532,50.7083 -79.9678,120.743 -79.9678,197.217 0,76.4753 30.4146,146.51 79.9678,197.218 48.8516,49.9902 116.381,81.1902 191.731,81.1902 72.0934,0 125.079,-20.6386 163.378,-49.3642 47.1544,-35.3646 72.4241,-82.9997 83.6729,-119.367l-247.051 0 -16.0004 0 0 -16.0004 0 -160.586 0 -16.0004 16.0004 0 441.613 0 12.4689 0 3.03071 12.1252c7.18701,28.7634 7.18819,49.5378 7.18819,84.1501l0 0.0177165 0 0.00472441c0,138.112 -46.8544,255.75 -128.408,339.037 -81.5953,83.3268 -197.613,131.934 -335.888,131.934l-0.00472441 0z"/></g><rect class="fil1" height="2048" width="2048"/></svg>
