<?xml version="1.0" ?><!DOCTYPE svg  PUBLIC '-//W3C//DTD SVG 1.1//EN'  'http://www.w3.org/Graphics/SVG/1.1/DTD/svg11.dtd'><svg height="2048px" style="shape-rendering:geometricPrecision; text-rendering:geometricPrecision; image-rendering:optimizeQuality; fill-rule:evenodd; clip-rule:evenodd" viewBox="0 0 2048 2048" width="2048px" xml:space="preserve" xmlns="http://www.w3.org/2000/svg" xmlns:xlink="http://www.w3.org/1999/xlink"><defs><style type="text/css">
   <![CDATA[
    .fil1 {fill:none}
    .fil0 {fill:#424242;fill-rule:nonzero}
   ]]>
  </style></defs><g id="Layer_x0020_1"><path class="fil0" d="M1670.68 582.642c28.1044,-7.73386 55.3252,-17.4673 81.4241,-28.9654 5.08819,-2.88189 11.5772,-2.86063 16.774,0.603544 7.35119,4.9004 9.3378,14.8358 4.4374,22.187 -20.6847,31.0276 -44.2063,60.1914 -70.2308,87.1477 -23.961,24.8197 -50.0268,47.6894 -77.9339,68.3351l0.686221 29.3988c0.0637796,0.575197 0.0956694,1.16102 0.0956694,1.75394 0,219.372 -90.2292,456.91 -262.303,628.959 -146.659,146.635 -352.59,245.782 -612.569,245.782 -85.2402,0 -167.653,-12.261 -245.685,-35.1059 -80.4249,-23.5453 -156.005,-58.3016 -225.06,-102.426 -5.51457,-3.02362 -8.95276,-9.16182 -8.21575,-15.7996 0.97441,-8.7815 8.88544,-15.1122 17.6669,-14.1378l-0.00354331 0.0283465c11.7307,1.30158 23.3398,2.28425 34.8685,2.9315 11.2205,0.629528 22.9429,0.951969 35.2453,0.951969 67.6949,0 132.743,-11.289 193.322,-32.1047 49.3134,-16.9453 95.6446,-40.1599 138.018,-68.6977 -51.9638,-8.19922 -99.7465,-28.9004 -140.145,-58.9453 -52.2874,-38.8831 -92.2383,-93.4135 -112.93,-156.721 -1.16929,-2.78977 -1.56142,-5.94331 -0.959056,-9.1382 1.63819,-8.68347 10.0063,-14.3941 18.6898,-12.7559l-0.00708662 0.0401575c9.06851,1.71024 17.9929,2.96693 26.8158,3.78071 8.58072,0.791339 17.6575,1.18228 27.2681,1.18228 3.17126,0 6.3189,-0.0484252 9.44056,-0.140551 -45.4122,-20.4331 -85.2024,-51.215 -116.334,-89.3387 -44.8087,-54.8741 -71.7284,-124.921 -71.7284,-201.183l0 -3.60473c-0.0153543,-2.64213 0.623623,-5.32441 1.99016,-7.80355 4.26615,-7.73741 13.9984,-10.5508 21.7358,-6.28465l-0.0129921 0.0236221c19.9063,10.9748 41.0788,19.7847 63.2304,25.904 3.97441,1.09843 7.98308,2.10945 12.0225,3.03544 -23.5618,-22.8213 -43.6252,-49.317 -59.2713,-78.554 -23.9197,-44.7 -37.5107,-95.7166 -37.5107,-149.707 0,-28.6512 3.80315,-56.5335 10.9583,-83.0871 7.20119,-26.7225 17.8547,-52.1244 31.4918,-75.6331 0.986221,-2.10945 2.45197,-4.03583 4.37717,-5.6067 6.84686,-5.58544 16.9264,-4.5626 22.5118,2.28425l-12.398 10.1138 12.3744 -10.0618c74.3847,91.1918 167.312,166.44 273.078,220.027 96.6166,48.9496 203.922,79.819 317.564,88.2579 -0.788977,-4.89213 -1.46811,-9.79371 -2.03032,-14.7036 -1.3937,-12.1677 -2.12953,-24.4477 -2.12953,-36.8339 0,-87.7312 35.6032,-167.201 93.1371,-224.734 57.5339,-57.5339 137.003,-93.1371 224.734,-93.1371 44.6469,0 87.3757,9.34371 126.195,26.1366 37.4835,16.2154 71.1768,39.3496 99.2965,67.6914 30.2788,-6.35079 59.6776,-15.0331 88.0418,-25.839 31.3618,-11.948 61.3749,-26.4673 89.8489,-43.278 3.94016,-2.65748 9.0189,-3.53977 13.8898,-1.96181 8.40591,2.72362 13.011,11.7484 10.2874,20.1543l-0.0472441 -0.0153543c-12.013,37.05 -30.4559,71.093 -54.0426,100.759 -9.71221,12.2162 -20.3079,23.7024 -31.6937,34.363 7.30749,-1.70788 14.5512,-3.55158 21.7229,-5.5252z"/></g><rect class="fil1" height="2048" width="2048"/></svg>